<mxfile host="app.diagrams.net" agent="Mozilla/5.0 (Windows NT 10.0; Win64; x64) AppleWebKit/537.36 (KHTML, like Gecko) Chrome/133.0.0.0 Safari/537.36 Edg/133.0.0.0" version="26.0.16">
  <diagram name="第 1 页" id="BNNcfXUml5-91HIs8EmB">
    <mxGraphModel dx="844" dy="697" grid="0" gridSize="10" guides="1" tooltips="1" connect="1" arrows="1" fold="1" page="1" pageScale="1" pageWidth="827" pageHeight="1169" math="0" shadow="0">
      <root>
        <mxCell id="0" />
        <mxCell id="1" parent="0" />
        <mxCell id="JTT70fW_oS9wHVSlDYxQ-2" value="Application" style="rounded=1;whiteSpace=wrap;html=1;" vertex="1" parent="1">
          <mxGeometry x="277" y="148" width="257" height="30" as="geometry" />
        </mxCell>
        <mxCell id="JTT70fW_oS9wHVSlDYxQ-23" style="edgeStyle=orthogonalEdgeStyle;rounded=0;orthogonalLoop=1;jettySize=auto;html=1;exitX=0.5;exitY=1;exitDx=0;exitDy=0;entryX=0.5;entryY=0;entryDx=0;entryDy=0;" edge="1" parent="1" source="JTT70fW_oS9wHVSlDYxQ-3" target="JTT70fW_oS9wHVSlDYxQ-8">
          <mxGeometry relative="1" as="geometry" />
        </mxCell>
        <mxCell id="JTT70fW_oS9wHVSlDYxQ-3" value="UMD Runtime" style="rounded=1;whiteSpace=wrap;html=1;" vertex="1" parent="1">
          <mxGeometry x="277" y="220" width="257" height="30" as="geometry" />
        </mxCell>
        <mxCell id="JTT70fW_oS9wHVSlDYxQ-4" value="" style="endArrow=classic;startArrow=classic;html=1;rounded=0;entryX=0.5;entryY=1;entryDx=0;entryDy=0;" edge="1" parent="1" source="JTT70fW_oS9wHVSlDYxQ-3" target="JTT70fW_oS9wHVSlDYxQ-2">
          <mxGeometry width="50" height="50" relative="1" as="geometry">
            <mxPoint x="420" y="323" as="sourcePoint" />
            <mxPoint x="470" y="273" as="targetPoint" />
          </mxGeometry>
        </mxCell>
        <mxCell id="JTT70fW_oS9wHVSlDYxQ-5" value="" style="endArrow=none;dashed=1;html=1;dashPattern=1 3;strokeWidth=2;rounded=0;" edge="1" parent="1">
          <mxGeometry width="50" height="50" relative="1" as="geometry">
            <mxPoint x="136.5" y="289" as="sourcePoint" />
            <mxPoint x="674.5" y="289" as="targetPoint" />
          </mxGeometry>
        </mxCell>
        <mxCell id="JTT70fW_oS9wHVSlDYxQ-7" value="User Space" style="text;html=1;align=center;verticalAlign=middle;whiteSpace=wrap;rounded=0;" vertex="1" parent="1">
          <mxGeometry x="100" y="250" width="147" height="30" as="geometry" />
        </mxCell>
        <mxCell id="JTT70fW_oS9wHVSlDYxQ-8" value="&lt;span style=&quot;white-space: pre;&quot;&gt;&#x9;&lt;/span&gt;KMD Driver" style="rounded=1;whiteSpace=wrap;html=1;verticalAlign=bottom;align=left;" vertex="1" parent="1">
          <mxGeometry x="276" y="323" width="260" height="155" as="geometry" />
        </mxCell>
        <mxCell id="JTT70fW_oS9wHVSlDYxQ-9" value="Process MGT" style="rounded=0;whiteSpace=wrap;html=1;" vertex="1" parent="1">
          <mxGeometry x="300" y="344" width="75" height="32" as="geometry" />
        </mxCell>
        <mxCell id="JTT70fW_oS9wHVSlDYxQ-10" value="Queue MGT" style="rounded=0;whiteSpace=wrap;html=1;" vertex="1" parent="1">
          <mxGeometry x="433" y="344" width="75" height="32" as="geometry" />
        </mxCell>
        <mxCell id="JTT70fW_oS9wHVSlDYxQ-11" value="Memory MGT" style="rounded=0;whiteSpace=wrap;html=1;" vertex="1" parent="1">
          <mxGeometry x="300" y="403" width="75" height="32" as="geometry" />
        </mxCell>
        <mxCell id="JTT70fW_oS9wHVSlDYxQ-12" value="PCIE EP" style="rounded=0;whiteSpace=wrap;html=1;" vertex="1" parent="1">
          <mxGeometry x="433" y="403" width="75" height="32" as="geometry" />
        </mxCell>
        <mxCell id="JTT70fW_oS9wHVSlDYxQ-13" value="DRM" style="rounded=0;whiteSpace=wrap;html=1;" vertex="1" parent="1">
          <mxGeometry x="573" y="328" width="75" height="31" as="geometry" />
        </mxCell>
        <mxCell id="JTT70fW_oS9wHVSlDYxQ-14" value="TTM" style="rounded=0;whiteSpace=wrap;html=1;" vertex="1" parent="1">
          <mxGeometry x="573.34" y="366" width="75" height="31" as="geometry" />
        </mxCell>
        <mxCell id="JTT70fW_oS9wHVSlDYxQ-17" value="" style="endArrow=classic;startArrow=classic;html=1;rounded=0;entryX=0;entryY=0.5;entryDx=0;entryDy=0;exitX=1;exitY=0.132;exitDx=0;exitDy=0;exitPerimeter=0;" edge="1" parent="1" source="JTT70fW_oS9wHVSlDYxQ-8" target="JTT70fW_oS9wHVSlDYxQ-13">
          <mxGeometry width="50" height="50" relative="1" as="geometry">
            <mxPoint x="419" y="323" as="sourcePoint" />
            <mxPoint x="469" y="273" as="targetPoint" />
          </mxGeometry>
        </mxCell>
        <mxCell id="JTT70fW_oS9wHVSlDYxQ-18" value="" style="endArrow=classic;startArrow=classic;html=1;rounded=0;entryX=0;entryY=0.5;entryDx=0;entryDy=0;exitX=0.991;exitY=0.443;exitDx=0;exitDy=0;exitPerimeter=0;" edge="1" parent="1" target="JTT70fW_oS9wHVSlDYxQ-14">
          <mxGeometry width="50" height="50" relative="1" as="geometry">
            <mxPoint x="534.0000000000001" y="381.66499999999996" as="sourcePoint" />
            <mxPoint x="469.34" y="263" as="targetPoint" />
          </mxGeometry>
        </mxCell>
        <mxCell id="JTT70fW_oS9wHVSlDYxQ-19" value="PCIe Driver" style="rounded=0;whiteSpace=wrap;html=1;" vertex="1" parent="1">
          <mxGeometry x="573.34" y="404" width="75" height="31" as="geometry" />
        </mxCell>
        <mxCell id="JTT70fW_oS9wHVSlDYxQ-20" value="DRM Sched" style="rounded=0;whiteSpace=wrap;html=1;" vertex="1" parent="1">
          <mxGeometry x="573.34" y="441" width="75" height="31" as="geometry" />
        </mxCell>
        <mxCell id="JTT70fW_oS9wHVSlDYxQ-21" value="" style="endArrow=classic;startArrow=classic;html=1;rounded=0;entryX=0;entryY=0.5;entryDx=0;entryDy=0;exitX=1;exitY=0.132;exitDx=0;exitDy=0;exitPerimeter=0;" edge="1" target="JTT70fW_oS9wHVSlDYxQ-19" parent="1">
          <mxGeometry width="50" height="50" relative="1" as="geometry">
            <mxPoint x="536.34" y="419" as="sourcePoint" />
            <mxPoint x="469.34" y="349" as="targetPoint" />
          </mxGeometry>
        </mxCell>
        <mxCell id="JTT70fW_oS9wHVSlDYxQ-22" value="" style="endArrow=classic;startArrow=classic;html=1;rounded=0;entryX=0;entryY=0.5;entryDx=0;entryDy=0;exitX=0.991;exitY=0.443;exitDx=0;exitDy=0;exitPerimeter=0;" edge="1" target="JTT70fW_oS9wHVSlDYxQ-20" parent="1">
          <mxGeometry width="50" height="50" relative="1" as="geometry">
            <mxPoint x="534.34" y="457" as="sourcePoint" />
            <mxPoint x="469.34" y="338" as="targetPoint" />
          </mxGeometry>
        </mxCell>
      </root>
    </mxGraphModel>
  </diagram>
</mxfile>
